<svg width="1920" height="1440" viewBox="0 0 1920 1440" fill="none" xmlns="http://www.w3.org/2000/svg">
<g id="welcome_landscape 1" clip-path="url(#clip0)">
<g id="Group">
<path id="layer3" d="M555.36 505.003C565.72 502.263 576.22 499.393 587.02 499.323C602.06 499.073 616.97 501.433 631.91 502.793C651.52 505.873 671.49 507.403 690.56 513.193C708.66 518.063 725.6 526.213 743.04 532.913C751.48 537.063 760.07 540.883 768.46 545.153C778.16 550.073 788.41 554.043 797.43 560.213C806.66 566.493 815.58 573.233 824.07 580.483C835.69 590.363 848.15 599.183 860.21 608.493C870.22 616.693 880.8 624.183 891.98 630.713C903.48 638.043 915.97 643.593 928.22 649.533C937.59 654.503 947.32 658.753 957.25 662.503C942.7 662.883 928.35 660.243 913.93 658.803C902.03 657.343 889.98 656.963 878.24 654.403C866.75 651.833 855.37 648.693 843.7 647.033C826.18 644.493 809.18 639.223 791.6 637.113C780.48 635.353 769.2 635.593 758.01 634.743C746.47 633.853 734.91 633.393 723.41 632.213C701.18 631.023 678.93 629.813 656.84 626.993C641.33 625.013 625.7 624.463 610.12 623.273C599.76 622.523 589.37 622.943 579 622.813C566.63 622.663 554.3 623.683 541.99 624.693C531.46 625.653 520.85 626.573 510.59 629.253C495.11 633.423 479.61 637.583 463.85 640.523C452.09 642.743 440.05 642.703 428.29 644.923C416.45 646.833 404.8 649.743 392.96 651.653C380.17 653.643 367.48 656.263 354.71 658.373C345.98 659.673 337.41 661.783 328.76 663.463C311.75 667.023 294.13 667.063 277.43 672.173C260.16 676.743 244.44 685.463 227.66 691.383C210.51 697.913 193.98 706.273 176.12 710.813C165.88 713.283 155.3 713.713 144.98 715.753C134.83 717.553 125.06 721.093 114.84 722.543C96.73 725.003 78.96 729.503 60.77 731.433C51.21 732.543 41.56 732.213 31.97 731.653C25.6 731.163 19.16 730.663 13 728.873V594.243C19.55 600.883 26.85 606.783 34.37 612.293C43.33 618.873 53.58 623.253 63.42 628.273C73.2 633.243 83.78 636.743 94.68 638.093C103.58 639.223 112.52 640.103 121.41 641.293C130.59 642.383 139.78 644.243 149.07 643.563C158.46 642.953 167.82 641.933 177.18 640.963C191.73 639.123 206.3 636.463 221.03 636.923C233.61 637.473 246.16 636.023 258.6 634.313C273.82 632.323 288.19 626.713 302.91 622.643C317.07 617.893 331.53 613.613 344.71 606.443C362.47 597.103 379.13 585.823 397.05 576.783C413.94 567.963 431.1 559.673 447.83 550.563C457.83 545.823 467.71 540.823 477.94 536.583C495.1 529.473 512.21 522.233 529.34 515.023C537.78 511.113 546.33 507.363 555.36 505.003Z" fill="#6E2A8F" stroke="#6E2A8F"/>
<path id="layer4" d="M1910.39 525.353C1906.45 524.473 1902.66 523.093 1898.83 521.913C1889.1 519.843 1879.19 518.703 1869.59 516.083C1857.65 513.353 1846.61 507.833 1835.95 501.963C1834.31 501.173 1832.7 500.353 1831.14 499.473C1817.81 490.883 1802.42 486.483 1787.7 480.983C1778.08 477.103 1768.73 472.593 1759.26 468.403C1751.34 464.883 1742.84 463.033 1734.5 460.823C1734.02 460.773 1733.06 460.683 1732.57 460.643C1723.47 460.003 1714.3 458.973 1705.63 456.003C1696.89 453.193 1688.06 450.633 1679.57 447.123C1669.69 443.353 1659.22 441.333 1649.44 437.273C1638.97 433.233 1629.05 427.363 1617.77 425.803C1601.61 423.223 1585.63 418.533 1571.42 410.273C1564.46 406.403 1557.79 402.043 1551.37 397.343C1543.84 392.273 1536.45 386.993 1529.45 381.203C1522.13 375.113 1514.25 369.743 1506.57 364.133C1498.27 358.453 1489.34 353.133 1479.28 351.423C1470.15 349.883 1461.32 346.593 1451.99 346.403C1441.51 346.063 1431.19 348.323 1420.82 349.433C1408.77 350.793 1397.48 355.373 1385.86 358.533C1379.01 360.483 1372.26 362.933 1365.17 363.873C1350.38 366.133 1335.13 364.323 1320.59 368.323C1309.41 371.313 1298.42 375.003 1287.2 377.863C1279.62 379.893 1271.7 379.503 1263.99 380.613C1254.31 381.673 1244.79 384.053 1235.05 384.563C1229.71 384.873 1224.35 385.023 1219.08 385.923C1215.53 386.703 1212.06 387.813 1208.63 388.973C1200 392.263 1191.34 395.433 1182.53 398.183C1173.17 401.023 1165.21 407.443 1155.46 409.113C1146.68 410.623 1137.77 409.383 1128.94 409.403C1120.77 409.453 1112.82 407.493 1104.76 406.543C1092.85 405.543 1081.12 402.073 1069.1 402.963C1060.85 403.483 1052.48 403.003 1044.39 404.943C1032.57 407.593 1020.97 411.073 1009.2 413.923C998.87 417.293 988.48 420.533 978.15 423.913C963.27 430.013 948.1 436.073 932 437.913C923.46 438.943 915.05 436.733 906.58 436.123C900.3 435.633 894.01 436.403 887.87 437.673C867.05 442.163 846.46 449.003 824.94 449.043C811.38 449.033 797.9 451.003 784.34 450.723C776.22 450.583 768.19 449.083 760.07 448.933C753.03 448.603 745.98 449.013 738.95 448.693C729.3 448.303 720.18 444.843 711.03 442.123C707.5 441.093 704.06 439.783 700.83 438.053C693.34 435.043 686.22 431.263 679.02 427.653C667.86 421.903 655.65 418.363 643.31 416.303C621.61 413.373 599.5 408.063 581.31 395.323C573.05 388.603 564.35 382.403 556.68 374.983C544.31 363.673 533.62 350.743 522.17 338.543C508.47 324.203 494.43 310.123 478.82 297.853C464.42 286.713 447.92 276.283 429.11 276.003C419.23 275.923 409.5 277.643 399.82 279.363C385.21 281.073 371.28 286.113 357.64 291.373C352.42 293.403 347.06 295.033 341.61 296.283C329.68 298.993 317.6 302.393 305.25 301.303C293.88 300.273 282.55 298.763 271.14 298.233C261.12 297.423 250.89 298.123 241.1 295.443C234.26 293.563 227.49 291.423 220.84 288.953C211.56 285.823 201.74 284.243 191.94 284.773C174.1 285.793 155.98 286.833 138.34 283.243C130.12 283.433 121.78 283.353 113.79 285.533C108.41 286.973 103.04 288.463 97.63 289.783C86.77 292.523 76.49 297.053 65.86 300.513C59.13 302.723 52.61 305.573 45.75 307.363C39.87 308.893 33.78 309.063 27.78 309.833C22.86 310.753 17.95 311.803 13 312.573V385.023V594.243C19.55 600.883 26.85 606.783 34.37 612.293C43.33 618.873 53.58 623.253 63.42 628.273C73.2 633.243 83.78 636.743 94.68 638.093C103.58 639.223 112.52 640.103 121.41 641.293C130.59 642.383 139.78 644.243 149.07 643.563C158.46 642.953 167.82 641.933 177.18 640.963C191.73 639.123 206.3 636.463 221.03 636.923C233.61 637.473 246.16 636.023 258.6 634.313C273.82 632.323 288.19 626.713 302.91 622.643C317.07 617.893 331.53 613.613 344.71 606.443C362.47 597.103 379.13 585.823 397.05 576.783C413.94 567.963 431.1 559.673 447.83 550.563C457.83 545.823 467.71 540.823 477.94 536.583C495.1 529.473 512.21 522.233 529.34 515.023C537.78 511.113 546.33 507.363 555.36 505.003C565.72 502.263 576.22 499.393 587.02 499.323C602.06 499.073 616.97 501.433 631.91 502.793C651.52 505.873 671.49 507.403 690.56 513.193C708.66 518.063 725.6 526.213 743.04 532.913C751.48 537.063 760.07 540.883 768.46 545.153C778.16 550.073 788.41 554.043 797.43 560.213C806.66 566.493 815.58 573.233 824.07 580.483C835.69 590.363 848.15 599.183 860.21 608.493C870.22 616.693 880.8 624.183 891.98 630.713C903.48 638.043 915.97 643.593 928.22 649.533C937.59 654.503 947.32 658.753 957.25 662.503C965.49 663.433 973.82 663.183 982.08 663.963C992.42 664.503 1002.69 665.883 1013.01 666.613C1013.01 666.613 1021.54 669.443 1025.47 668.353C1043.73 667.513 1061.73 671.923 1079.99 671.183C1092.96 670.973 1106.22 671.353 1118.8 667.583C1128.93 662.653 1139.49 658.703 1149.98 654.603C1160.81 650.333 1171.05 644.703 1182 640.703C1191.07 637.493 1200.56 635.443 1210.16 634.703C1214.34 633.313 1218.47 631.773 1222.62 630.273C1242.2 623.063 1262.88 619.643 1282.78 613.483C1301.64 607.493 1320.76 602.343 1339.99 597.713C1360.63 593.503 1381.5 590.543 1402.25 586.923C1416.67 583.823 1431.2 581.103 1445.91 579.903C1467.04 578.663 1487.91 574.773 1509.05 573.703C1522.98 572.873 1536.44 569.043 1549.89 565.583C1564.95 561.383 1580.3 558.293 1595.33 553.993C1608.03 550.233 1621.14 548.283 1634.14 545.853C1645.72 543.823 1657.16 540.953 1668.84 539.493C1679.18 538.363 1689.62 537.883 1700.01 538.653C1713.99 539.673 1727.94 541.543 1741.99 541.383C1751.59 541.213 1761.2 542.183 1770.8 541.483C1781.86 540.903 1792.95 541.363 1804.01 540.573C1813.99 539.903 1823.99 540.633 1833.96 541.203C1845.18 542.073 1856.16 544.763 1867 547.693C1875.32 549.933 1883.88 551.133 1892.22 553.323C1905.54 556.703 1919.29 557.893 1933 558.103V528.473C1925.49 527.173 1917.8 527.193 1910.39 525.353Z" fill="#AF5BC8" stroke="#AF5BC8"/>
<g id="layer2">
<path id="Vector" d="M1668.84 539.493C1679.18 538.363 1689.62 537.883 1700.01 538.653C1713.99 539.673 1727.94 541.543 1741.99 541.383C1751.59 541.213 1761.2 542.183 1770.8 541.483C1781.86 540.903 1792.95 541.363 1804.01 540.573C1813.99 539.903 1823.99 540.633 1833.96 541.203C1845.18 542.073 1856.16 544.763 1867 547.693C1875.32 549.933 1883.88 551.133 1892.22 553.323C1905.54 556.703 1919.29 557.893 1933 558.103V880.003C1929.62 879.773 1926.25 879.513 1922.9 879.263C1904.17 878.263 1886.5 871.533 1868.88 865.723C1851 859.043 1832.94 852.903 1814.92 846.633C1796.15 840.233 1779.29 829.543 1761.25 821.493C1750.91 817.023 1741.14 811.373 1730.86 806.803C1715.05 799.713 1699.03 793.063 1683.65 785.053C1668.79 777.263 1653.04 771.253 1636.86 766.843C1613.21 759.783 1588.79 754.463 1564 754.473C1551.61 754.623 1539.16 755.243 1526.82 753.853C1507.37 751.233 1488.22 746.813 1468.87 743.613C1458.01 741.853 1447.08 740.653 1436.18 739.273C1411.69 736.063 1387.72 729.303 1363.01 727.733C1347.67 726.563 1332.41 724.403 1317.03 723.743C1295 723.053 1273.03 721.073 1250.99 720.883C1228.46 720.853 1206.37 725.633 1184.16 728.693C1174.78 730.373 1165.26 731.073 1155.82 732.423C1141.93 733.953 1127.92 734.473 1114.13 736.883C1102.79 738.943 1091.34 740.333 1080.07 742.793C1047.32 750.633 1013.38 748.263 980.01 748.613C945.68 748.113 911.21 748.243 877.1 752.633C861.07 755.273 845.31 759.603 829.06 760.853C811.32 763.403 793.69 766.813 776.25 770.963C752.7 775.523 729.73 782.693 706.08 786.763C697.29 788.283 688.77 791.043 680.01 792.683C664.22 795.803 648.09 796.103 632.15 798.003C620.36 799.493 608.46 799.763 596.69 801.333C586.14 802.673 575.59 804.083 564.97 804.733C553.62 805.413 542.4 807.763 531 807.803C521.61 807.833 512.2 807.983 502.85 807.013C491.49 805.953 480.27 803.683 468.87 803.043C458.64 802.473 448.47 801.083 438.26 800.253C423.84 799.133 409.51 796.753 395.01 796.773C377.34 796.803 359.66 797.093 341.99 797.503C334 797.463 326 797.643 318.07 798.773C303.11 800.523 288.05 801.753 272.98 801.733C250.33 802.863 227.44 805.143 205.89 812.623C195.51 816.323 185.3 820.513 175.2 824.913C169.54 827.363 164.15 830.433 158.41 832.703C147.41 833.453 136.62 835.853 125.72 837.343C104.49 840.353 83.4 844.553 61.96 845.773C45.52 846.833 29.28 849.723 13 852.153V728.873C19.16 730.663 25.6 731.163 31.97 731.653C41.56 732.213 51.21 732.543 60.77 731.433C78.96 729.503 96.73 725.003 114.84 722.543C125.06 721.093 134.83 717.553 144.98 715.753C155.3 713.713 165.88 713.283 176.12 710.813C193.98 706.273 210.51 697.913 227.66 691.383C244.44 685.463 260.16 676.743 277.43 672.173C294.13 667.063 311.75 667.023 328.76 663.463C337.41 661.783 345.98 659.673 354.71 658.373C367.48 656.263 380.17 653.643 392.96 651.653C404.8 649.743 416.45 646.833 428.29 644.923C440.05 642.703 452.09 642.743 463.85 640.523C479.61 637.583 495.11 633.423 510.59 629.253C520.85 626.573 531.46 625.653 541.99 624.693C554.3 623.683 566.63 622.663 579 622.813C589.37 622.943 599.76 622.523 610.12 623.273C625.7 624.463 641.33 625.013 656.84 626.993C678.93 629.813 701.18 631.023 723.41 632.213C734.91 633.393 746.47 633.853 758.01 634.743C769.2 635.593 780.48 635.353 791.6 637.113C809.18 639.223 826.18 644.493 843.7 647.033C855.37 648.693 866.75 651.833 878.24 654.403C889.98 656.963 902.03 657.343 913.93 658.803C928.35 660.243 942.7 662.883 957.25 662.503C965.49 663.433 973.82 663.183 982.08 663.963C992.42 664.503 1002.69 665.883 1013.01 666.613L1025.47 668.353C1043.73 667.513 1061.73 671.923 1079.99 671.183C1092.96 670.973 1106.22 671.353 1118.8 667.583C1126.15 666.473 1133.4 664.723 1140.41 662.183C1157.88 656.423 1175.1 649.923 1192.04 642.743C1198.18 640.293 1204.28 637.743 1210.16 634.703C1214.34 633.313 1218.47 631.773 1222.62 630.273C1242.2 623.063 1262.88 619.643 1282.78 613.483C1301.64 607.493 1320.76 602.343 1339.99 597.713C1360.63 593.503 1381.5 590.543 1402.25 586.923C1416.67 583.823 1431.2 581.103 1445.91 579.903C1467.04 578.663 1487.91 574.773 1509.05 573.703C1522.98 572.873 1536.44 569.043 1549.89 565.583C1564.95 561.383 1580.3 558.293 1595.33 553.993C1608.03 550.233 1621.14 548.283 1634.14 545.853C1645.72 543.823 1657.16 540.953 1668.84 539.493Z" fill="#451762" stroke="#451762"/>
<path id="Vector_2" d="M1182 640.703C1191.07 637.493 1200.56 635.443 1210.16 634.703C1204.28 637.743 1198.18 640.293 1192.04 642.743C1175.1 649.923 1157.88 656.423 1140.41 662.183C1133.4 664.723 1126.15 666.473 1118.8 667.583C1128.93 662.653 1139.49 658.703 1149.98 654.603C1160.81 650.333 1171.05 644.703 1182 640.703Z" fill="#6F2B8F" stroke="#6F2B8F"/>
</g>
<path id="layer1" d="M1184.16 728.693C1206.37 725.633 1228.46 720.853 1250.99 720.883C1273.03 721.073 1295 723.053 1317.03 723.743C1332.41 724.403 1347.67 726.563 1363.01 727.733C1387.72 729.303 1411.69 736.063 1436.18 739.273C1447.08 740.653 1458.01 741.853 1468.87 743.613C1488.22 746.813 1507.37 751.233 1526.82 753.853C1539.16 755.243 1551.61 754.623 1564 754.473C1588.79 754.463 1613.21 759.783 1636.86 766.843C1653.04 771.253 1668.79 777.263 1683.65 785.053C1699.03 793.063 1715.05 799.713 1730.86 806.803C1741.14 811.373 1750.91 817.023 1761.25 821.493C1779.29 829.543 1796.15 840.233 1814.92 846.633C1832.94 852.903 1851 859.043 1868.88 865.723C1886.5 871.533 1904.17 878.263 1922.9 879.263C1912.52 880.063 1902.16 878.373 1891.79 879.103C1880.5 879.693 1869.2 878.373 1857.93 879.123C1836.18 879.623 1814.47 881.433 1792.9 884.173C1783.2 884.963 1773.77 887.483 1764.38 889.883C1743.66 895.353 1722.76 900.143 1701.73 904.223C1688.09 906.883 1674.12 906.733 1660.41 908.793C1651.48 909.883 1642.69 911.803 1633.82 913.193C1623.58 914.773 1613.57 917.573 1603.27 918.823C1591.89 920.763 1580.53 922.853 1569.12 924.603C1548.66 928.923 1527.8 931.093 1507.41 935.763C1497.87 937.173 1488.53 939.833 1478.89 940.513C1457.52 942.443 1436.16 945.573 1415.7 952.233C1397.29 957.383 1380.25 966.263 1362.37 972.873C1339.75 980.933 1317.82 990.833 1295.06 998.513C1277.11 1004.99 1258.16 1007.97 1239.24 1009.84C1219.54 1012.02 1200.85 1019.37 1181.16 1021.63C1170.73 1022.83 1160.52 1025.46 1150.08 1026.56C1138.06 1028.49 1126.27 1031.93 1114.07 1032.67C1102.78 1034.37 1091.37 1034.59 1080 1035.19C1067.71 1034.57 1055.4 1033.91 1043.2 1032.23C1032.19 1031.05 1021.36 1028.65 1010.43 1026.96C989.63 1023.26 969.28 1017.46 949.07 1011.37C930.93 1005.59 913.11 998.853 895.23 992.333C884.53 988.813 873.77 985.473 863.31 981.283C853.29 977.733 843.42 973.673 834.15 968.423C819.64 960.113 804.26 953.493 789.16 946.383C772.41 936.723 754.28 929.873 736.79 921.713C714.94 912.013 694.21 899.743 671.49 892.063C642.03 882.143 611.63 874.613 580.62 871.823C570.44 870.613 560.2 871.543 550 871.333C540.65 871.153 531.24 871.913 521.95 870.573C493.35 866.943 465.41 859.573 436.85 855.713C425.22 854.553 413.66 852.813 402.08 851.273C379.67 847.293 357.38 842.483 334.75 839.823C321.86 838.683 308.96 837.723 296.1 836.233C287.79 835.233 279.39 835.173 271.08 834.203C263.74 833.353 256.35 833.383 248.97 833.363C235.72 832.853 222.5 831.383 209.23 831.173C201.38 831.293 193.53 830.093 185.68 830.973C176.57 831.293 167.5 832.083 158.41 832.703C164.15 830.433 169.54 827.363 175.2 824.913C185.3 820.513 195.51 816.323 205.89 812.623C227.44 805.143 250.33 802.863 272.98 801.733C288.05 801.753 303.11 800.523 318.07 798.773C326 797.643 334 797.463 341.99 797.503C359.66 797.093 377.34 796.803 395.01 796.773C409.51 796.753 423.84 799.133 438.26 800.253C448.47 801.083 458.64 802.473 468.87 803.043C480.27 803.683 491.49 805.953 502.85 807.013C512.2 807.983 521.61 807.833 531 807.803C542.4 807.763 553.62 805.413 564.97 804.733C575.59 804.083 586.14 802.673 596.69 801.333C608.46 799.763 620.36 799.493 632.15 798.003C648.09 796.103 664.22 795.803 680.01 792.683C688.77 791.043 697.29 788.283 706.08 786.763C729.73 782.693 752.7 775.523 776.25 770.963C793.69 766.813 811.32 763.403 829.06 760.853C845.31 759.603 861.07 755.273 877.1 752.633C911.21 748.243 945.68 748.113 980.01 748.613C1013.38 748.263 1047.32 750.633 1080.07 742.793C1091.34 740.333 1102.79 738.943 1114.13 736.883C1127.92 734.473 1141.93 733.953 1155.82 732.423C1165.26 731.073 1174.78 730.373 1184.16 728.693Z" fill="#260B38" stroke="#260B38"/>
<path id="layer0" d="M1922.9 879.263C1912.52 880.063 1902.16 878.373 1891.79 879.103C1880.5 879.693 1869.2 878.373 1857.93 879.123C1836.18 879.623 1814.47 881.433 1792.9 884.173C1783.2 884.963 1773.77 887.483 1764.38 889.883C1743.66 895.353 1722.76 900.143 1701.73 904.223C1688.09 906.883 1674.12 906.733 1660.41 908.793C1651.48 909.883 1642.69 911.803 1633.82 913.193C1623.58 914.773 1613.57 917.573 1603.27 918.823C1591.89 920.763 1580.53 922.853 1569.12 924.603C1548.66 928.923 1527.8 931.093 1507.41 935.763C1497.87 937.173 1488.53 939.833 1478.89 940.513C1457.52 942.443 1436.16 945.573 1415.7 952.233C1397.29 957.383 1380.25 966.263 1362.37 972.873C1339.75 980.933 1317.82 990.833 1295.06 998.513C1277.11 1004.99 1258.16 1007.97 1239.24 1009.84C1219.54 1012.02 1200.85 1019.37 1181.16 1021.63C1170.73 1022.83 1160.52 1025.46 1150.08 1026.56C1138.06 1028.49 1126.27 1031.93 1114.07 1032.67C1102.78 1034.37 1091.37 1034.59 1080 1035.19C1067.71 1034.57 1055.4 1033.91 1043.2 1032.23C1032.19 1031.05 1021.36 1028.65 1010.43 1026.96C989.63 1023.26 969.28 1017.46 949.07 1011.37C930.93 1005.59 913.11 998.853 895.23 992.333C884.53 988.813 873.77 985.473 863.31 981.283C853.29 977.733 843.42 973.673 834.15 968.423C819.64 960.113 804.26 953.493 789.16 946.383C772.41 936.723 754.28 929.873 736.79 921.713C714.94 912.013 694.21 899.743 671.49 892.063C642.03 882.143 611.63 874.613 580.62 871.823C570.44 870.613 560.2 871.543 550 871.333C540.65 871.153 531.24 871.913 521.95 870.573C493.35 866.943 465.41 859.573 436.85 855.713C425.22 854.553 413.66 852.813 402.08 851.273C379.67 847.293 357.38 842.483 334.75 839.823C321.86 838.683 308.96 837.723 296.1 836.233C287.79 835.233 279.39 835.173 271.08 834.203C263.74 833.353 256.35 833.383 248.97 833.363C235.72 832.853 222.5 831.383 209.23 831.173C201.38 831.293 193.53 830.093 185.68 830.973C176.57 831.293 167.5 832.083 158.41 832.703C147.41 833.453 136.62 835.853 125.72 837.343C104.49 840.353 83.4 844.553 61.96 845.773C45.52 846.833 29.28 849.723 13 852.153V1310.18V1439.68H1933V1266.72V880.003C1929.62 879.773 1926.25 879.513 1922.9 879.263Z" fill="#13051C" stroke="#13051C"/>
</g>
</g>
<defs>
<clipPath id="clip0">
<rect width="1920" height="1440" fill="white"/>
</clipPath>
</defs>
</svg>
