<svg id="svg" xmlns="http://www.w3.org/2000/svg" xmlns:xlink="http://www.w3.org/1999/xlink" width="400" height="117.99410029498524" viewBox="0, 0, 400,117.99410029498524" version="1.1"><g id="svgg"><path id="path0" d="M22.417 14.850 C 22.142 14.935,21.054 15.194,20.000 15.425 C 18.946 15.656,17.933 15.931,17.750 16.035 C 17.567 16.140,17.016 16.437,16.526 16.695 C 15.437 17.270,13.689 19.026,13.261 19.976 C 13.087 20.361,12.770 20.914,12.556 21.204 C 12.032 21.914,11.970 25.026,12.466 25.686 C 12.630 25.904,12.949 26.458,13.174 26.917 C 13.399 27.375,13.671 27.807,13.779 27.876 C 13.886 27.945,14.136 28.264,14.334 28.584 C 14.532 28.905,14.778 29.167,14.881 29.167 C 14.983 29.167,15.296 29.383,15.575 29.647 C 15.855 29.910,16.496 30.258,17.000 30.419 C 17.504 30.581,18.191 30.850,18.527 31.019 C 19.607 31.561,20.664 31.684,24.273 31.685 C 27.877 31.686,28.641 31.592,29.964 30.986 C 30.357 30.806,31.073 30.557,31.556 30.431 C 32.038 30.305,32.720 30.007,33.072 29.768 C 33.424 29.529,34.000 29.257,34.351 29.162 C 34.702 29.067,35.048 28.890,35.119 28.767 C 35.885 27.456,39.195 27.545,40.325 28.907 C 40.444 29.050,40.653 29.167,40.790 29.167 C 40.927 29.167,41.472 29.429,42.000 29.750 C 42.528 30.071,43.089 30.333,43.246 30.333 C 43.403 30.333,44.105 30.605,44.806 30.938 C 47.532 32.231,54.646 32.217,57.452 30.913 C 60.585 29.456,61.865 28.126,62.514 25.656 C 63.513 21.851,62.037 18.449,58.583 16.591 C 55.186 14.764,47.782 14.685,44.046 16.436 C 43.384 16.746,42.805 17.000,42.759 17.000 C 42.713 17.000,41.956 17.394,41.077 17.875 C 40.198 18.356,39.240 18.878,38.948 19.034 C 38.035 19.521,36.502 19.317,35.673 18.599 C 35.438 18.395,34.722 17.975,33.417 17.274 C 31.865 16.442,30.233 15.807,28.833 15.492 C 27.962 15.296,26.929 15.030,26.536 14.901 C 25.737 14.639,23.200 14.608,22.417 14.850 M119.277 14.779 C 119.215 14.840,118.321 15.125,117.291 15.412 C 111.985 16.887,109.202 21.269,110.752 25.705 C 110.983 26.365,111.245 26.979,111.336 27.069 C 111.426 27.159,111.500 27.320,111.500 27.427 C 111.500 27.642,112.869 29.167,113.063 29.167 C 113.131 29.167,113.463 29.385,113.801 29.652 C 116.240 31.576,123.943 32.378,127.181 31.046 C 127.876 30.760,128.738 30.474,129.097 30.412 C 129.456 30.349,130.039 30.113,130.391 29.886 C 130.744 29.659,131.306 29.376,131.641 29.257 C 131.976 29.137,132.651 28.768,133.142 28.436 C 133.632 28.105,134.172 27.833,134.340 27.833 C 134.509 27.833,134.693 27.758,134.750 27.667 C 134.877 27.461,136.066 27.447,136.461 27.646 C 137.952 28.397,138.289 28.593,138.548 28.860 C 138.712 29.028,138.986 29.167,139.156 29.167 C 139.327 29.167,139.842 29.420,140.302 29.729 C 140.761 30.038,141.425 30.344,141.777 30.409 C 142.129 30.474,142.904 30.759,143.500 31.043 C 144.781 31.654,147.508 31.874,151.169 31.662 C 153.296 31.539,153.429 31.513,154.583 31.002 C 154.950 30.839,155.611 30.584,156.053 30.435 C 156.494 30.285,157.094 29.939,157.386 29.666 C 157.678 29.392,158.004 29.168,158.110 29.167 C 158.299 29.167,158.829 28.592,159.333 27.841 C 159.471 27.636,159.706 27.325,159.855 27.148 C 160.622 26.245,160.915 22.948,160.408 20.946 C 159.969 19.211,158.579 17.614,156.546 16.507 C 154.241 15.252,148.589 14.297,146.932 14.882 C 146.557 15.015,145.462 15.293,144.500 15.500 C 143.537 15.707,142.219 16.130,141.571 16.439 C 140.922 16.747,140.341 17.000,140.278 17.000 C 140.215 17.000,139.486 17.394,138.657 17.875 C 137.829 18.356,136.986 18.843,136.784 18.956 C 136.251 19.255,135.000 19.212,134.390 18.875 C 134.100 18.714,133.463 18.369,132.973 18.106 C 132.484 17.843,131.971 17.533,131.833 17.416 C 131.696 17.299,131.171 17.031,130.667 16.821 C 130.162 16.610,129.571 16.302,129.353 16.136 C 129.134 15.969,128.796 15.833,128.603 15.832 C 128.409 15.831,127.500 15.570,126.583 15.252 C 124.954 14.686,119.709 14.347,119.277 14.779 M25.806 20.750 C 27.710 20.936,30.369 21.943,31.024 22.726 C 31.539 23.343,31.242 24.667,30.587 24.667 C 30.462 24.667,29.735 24.946,28.972 25.288 L 27.583 25.909 24.167 25.913 L 20.750 25.917 19.792 25.250 C 18.808 24.565,18.766 24.503,18.596 23.486 C 18.330 21.902,21.791 20.182,24.417 20.595 C 24.600 20.624,25.225 20.694,25.806 20.750 M52.840 20.763 C 57.185 21.362,58.268 23.471,55.263 25.480 C 54.624 25.906,54.535 25.918,51.513 25.970 L 48.417 26.023 46.509 25.255 C 44.266 24.352,44.234 24.330,44.091 23.565 C 43.879 22.435,46.101 21.256,49.411 20.741 C 50.147 20.627,50.791 20.526,50.840 20.516 C 50.890 20.507,51.790 20.618,52.840 20.763 M124.044 20.748 C 128.766 21.508,131.106 23.876,128.083 24.836 C 127.717 24.953,127.004 25.244,126.500 25.482 C 125.607 25.905,125.497 25.917,122.238 25.917 L 118.892 25.917 118.190 25.452 C 116.820 24.545,116.667 24.346,116.667 23.476 C 116.667 21.738,118.202 20.931,122.293 20.521 C 122.409 20.509,123.197 20.612,124.044 20.748 M150.646 20.755 C 154.909 21.392,156.171 23.303,153.615 25.252 C 152.098 26.410,146.781 26.553,144.554 25.496 C 143.928 25.199,143.107 24.823,142.728 24.659 C 141.344 24.062,141.661 22.770,143.395 21.947 C 146.145 20.641,147.925 20.348,150.646 20.755 M78.500 29.692 C 76.912 29.786,75.512 29.977,74.417 30.250 C 73.500 30.477,72.158 30.775,71.433 30.912 C 70.709 31.048,69.997 31.265,69.850 31.394 C 69.703 31.523,69.096 31.801,68.500 32.013 C 67.904 32.224,67.353 32.503,67.275 32.631 C 67.197 32.759,66.784 33.027,66.358 33.225 C 65.090 33.815,62.354 36.837,61.506 38.583 C 60.637 40.373,60.677 40.364,53.777 40.302 L 47.971 40.250 47.584 39.801 C 47.372 39.553,47.089 38.872,46.955 38.286 C 46.366 35.706,46.080 35.630,37.127 35.698 L 30.337 35.750 29.544 36.545 L 28.750 37.339 28.755 41.045 C 28.760 44.330,28.801 44.882,29.113 45.917 C 29.308 46.558,29.554 47.683,29.660 48.417 C 29.772 49.185,30.056 50.174,30.330 50.750 C 30.592 51.300,30.860 51.938,30.926 52.167 C 31.318 53.525,33.485 55.760,35.167 56.540 C 38.611 58.139,43.625 55.761,44.744 52.000 C 44.812 51.771,45.003 51.347,45.168 51.058 C 45.334 50.770,45.630 49.914,45.826 49.156 C 46.176 47.804,46.573 47.134,47.413 46.473 C 48.053 45.970,58.019 46.008,58.996 46.517 C 60.130 47.108,60.286 47.475,60.372 49.750 C 60.481 52.613,61.878 56.623,63.590 58.984 C 64.155 59.764,64.373 60.663,64.192 61.469 C 64.056 62.075,63.713 62.687,62.406 64.652 C 61.069 66.661,60.474 67.624,60.312 68.042 C 60.214 68.294,60.078 68.500,60.010 68.500 C 59.681 68.500,59.000 70.165,59.000 70.970 C 59.000 73.125,61.211 74.567,62.918 73.527 C 63.831 72.969,66.000 70.401,66.000 69.876 C 66.000 69.789,66.149 69.584,66.331 69.419 C 66.512 69.255,66.888 68.718,67.165 68.227 C 67.443 67.735,67.725 67.333,67.793 67.333 C 67.862 67.333,68.096 66.996,68.315 66.584 C 68.970 65.349,70.659 65.201,72.087 66.254 C 72.364 66.459,73.039 66.753,73.587 66.909 C 74.135 67.065,74.883 67.341,75.250 67.522 C 75.616 67.703,76.741 68.002,77.750 68.186 C 78.758 68.371,79.958 68.627,80.417 68.756 C 82.592 69.367,92.231 69.374,93.956 68.765 C 94.305 68.642,95.001 68.489,95.503 68.425 C 96.806 68.259,98.524 67.824,98.933 67.557 C 99.125 67.431,99.725 67.213,100.266 67.072 C 100.807 66.931,101.587 66.614,102.000 66.366 C 104.052 65.136,105.414 65.562,106.428 67.750 C 106.652 68.232,107.282 69.177,108.321 70.588 C 108.593 70.957,108.871 71.407,108.938 71.588 C 109.393 72.806,111.305 74.077,112.508 73.962 C 114.934 73.728,115.715 70.498,113.849 68.419 C 113.684 68.234,113.369 67.749,113.149 67.341 C 112.930 66.932,112.654 66.482,112.536 66.341 C 112.223 65.964,110.833 63.845,110.833 63.744 C 110.833 63.697,110.564 63.267,110.235 62.789 C 109.538 61.776,109.544 61.045,110.257 59.962 C 110.482 59.620,110.667 59.290,110.667 59.229 C 110.667 59.168,110.939 58.708,111.271 58.207 C 111.603 57.706,112.012 56.924,112.178 56.469 C 112.345 56.013,112.553 55.553,112.641 55.445 C 112.798 55.253,113.150 53.981,113.826 51.161 C 114.013 50.379,114.167 49.286,114.167 48.732 C 114.167 47.865,114.227 47.668,114.596 47.321 L 115.026 46.917 120.555 46.831 C 127.827 46.719,127.460 46.637,128.025 48.500 C 129.889 54.649,132.482 57.403,136.417 57.413 C 138.898 57.419,141.608 55.754,142.735 53.530 C 142.958 53.089,143.259 52.631,143.404 52.511 C 143.548 52.391,143.668 52.170,143.669 52.021 C 143.671 51.704,144.198 50.006,144.554 49.167 C 144.914 48.319,145.720 41.500,145.629 40.072 C 145.536 38.618,145.041 37.529,144.005 36.500 L 143.250 35.750 135.717 35.750 L 128.184 35.750 127.495 36.446 C 126.938 37.008,126.747 37.371,126.496 38.348 C 125.975 40.374,126.438 40.242,119.669 40.300 C 114.491 40.344,113.787 40.319,113.299 40.070 C 112.701 39.766,112.167 39.272,112.167 39.024 C 112.167 38.937,111.897 38.466,111.566 37.975 C 111.236 37.485,110.867 36.892,110.746 36.658 C 110.404 35.999,107.942 33.621,107.225 33.259 C 106.872 33.080,106.433 32.804,106.250 32.646 C 106.067 32.487,105.467 32.192,104.917 31.991 C 104.367 31.789,103.794 31.517,103.645 31.387 C 103.495 31.257,102.445 30.966,101.311 30.740 C 100.178 30.515,99.063 30.245,98.833 30.142 C 97.688 29.624,84.552 29.333,78.500 29.692 M192.302 34.890 C 191.345 35.533,191.361 35.231,191.355 52.833 C 191.350 67.661,191.372 68.962,191.634 69.498 C 192.019 70.287,192.658 70.584,193.425 70.331 C 194.466 69.987,194.540 69.584,194.541 64.250 C 194.543 59.038,194.695 56.492,195.039 55.948 C 195.166 55.748,195.402 55.228,195.565 54.793 C 195.850 54.029,198.087 51.500,198.478 51.500 C 198.568 51.500,198.853 51.324,199.112 51.108 C 200.477 49.973,206.383 49.934,207.534 51.052 C 207.653 51.167,208.094 51.461,208.514 51.705 C 209.847 52.478,211.004 53.990,211.674 55.833 C 212.052 56.876,212.071 57.147,212.163 63.000 C 212.272 69.988,212.312 70.207,213.509 70.399 C 214.311 70.527,214.524 70.440,215.016 69.784 L 215.417 69.250 215.465 63.341 C 215.493 59.817,215.446 57.159,215.347 56.757 C 215.048 55.539,214.340 53.633,213.958 53.019 C 213.752 52.688,213.471 52.209,213.334 51.954 C 212.971 51.284,210.983 49.320,210.176 48.833 C 209.795 48.604,209.169 48.216,208.783 47.970 C 206.376 46.436,200.003 46.539,197.667 48.150 C 194.741 50.167,194.513 49.636,194.505 40.781 C 194.500 35.787,194.464 35.505,193.771 35.000 C 193.121 34.527,192.870 34.508,192.302 34.890 M261.954 34.695 C 260.779 35.124,260.833 34.261,260.833 52.583 C 260.833 71.142,260.766 70.158,262.059 70.401 C 262.699 70.521,263.500 70.237,263.500 69.890 C 263.500 69.767,263.568 69.667,263.650 69.667 C 264.069 69.667,264.167 68.396,264.167 62.927 C 264.167 55.041,264.563 53.898,268.157 51.413 C 270.362 49.889,275.483 49.762,277.277 51.188 C 277.608 51.451,277.937 51.667,278.008 51.667 C 278.188 51.667,280.000 53.481,280.000 53.661 C 280.000 53.742,280.178 54.020,280.396 54.279 C 281.359 55.427,281.667 57.719,281.667 63.758 C 281.667 69.687,281.784 70.241,283.064 70.374 C 284.738 70.547,284.892 70.065,284.973 64.417 C 285.062 58.121,284.607 54.465,283.594 53.346 C 283.451 53.187,283.333 52.950,283.333 52.820 C 283.333 52.690,283.164 52.382,282.958 52.137 C 282.752 51.892,282.358 51.409,282.083 51.066 C 281.157 49.908,279.808 48.718,279.000 48.346 C 278.679 48.198,278.229 47.954,278.000 47.803 C 276.204 46.617,269.642 46.622,267.834 47.810 C 264.322 50.118,264.169 49.905,264.159 42.686 C 264.151 36.244,264.110 35.885,263.280 35.080 C 262.630 34.449,262.630 34.449,261.954 34.695 M313.576 34.646 C 312.932 34.813,311.053 36.054,310.630 36.592 C 310.453 36.818,310.184 37.125,310.034 37.276 C 309.645 37.664,309.365 38.235,308.859 39.667 L 308.417 40.917 308.417 54.917 L 308.417 68.917 308.894 69.620 C 309.436 70.419,309.742 70.563,310.565 70.409 C 311.731 70.190,311.738 70.127,311.833 59.944 L 311.917 50.972 312.461 50.486 L 313.005 50.000 316.128 49.990 C 320.013 49.978,320.713 49.759,320.802 48.528 C 320.907 47.068,320.332 46.850,316.276 46.816 L 313.083 46.789 312.458 46.137 L 311.833 45.486 311.835 43.535 C 311.838 40.653,312.356 39.167,313.640 38.361 C 314.893 37.576,316.627 37.551,317.586 38.306 C 318.838 39.290,320.461 39.102,320.701 37.944 C 321.153 35.772,316.875 33.791,313.576 34.646 M95.133 35.499 C 96.077 35.584,97.277 35.763,97.800 35.895 C 98.322 36.028,99.350 36.263,100.083 36.417 C 104.616 37.374,107.374 40.518,107.679 45.076 C 107.897 48.335,107.650 50.688,106.914 52.362 C 106.595 53.088,106.333 53.763,106.333 53.861 C 106.333 54.093,104.984 56.093,104.349 56.802 C 104.076 57.106,103.831 57.408,103.802 57.472 C 103.689 57.727,102.201 58.833,101.970 58.833 C 101.446 58.833,100.667 57.558,100.667 56.698 C 100.667 56.026,99.907 53.758,99.472 53.131 C 98.943 52.367,97.297 50.667,97.087 50.667 C 96.992 50.667,96.828 50.529,96.723 50.361 C 96.618 50.193,96.019 49.883,95.391 49.671 C 94.763 49.459,94.100 49.191,93.917 49.076 C 92.817 48.383,83.527 48.112,81.167 48.703 C 76.173 49.955,73.950 52.268,72.996 57.205 C 72.796 58.237,72.279 58.833,71.584 58.833 C 71.082 58.833,68.686 56.250,68.189 55.173 C 68.039 54.849,67.822 54.508,67.706 54.417 C 67.591 54.325,67.147 53.237,66.721 52.000 L 65.946 49.750 65.947 46.583 C 65.948 43.162,65.920 43.303,67.134 40.667 C 67.907 38.988,70.729 36.986,73.083 36.448 C 76.651 35.631,77.615 35.482,80.250 35.342 C 83.471 35.169,92.558 35.265,95.133 35.499 M222.873 37.142 C 221.393 37.567,221.633 40.034,223.192 40.419 C 224.921 40.846,225.859 38.380,224.333 37.417 C 223.650 36.986,223.509 36.959,222.873 37.142 M328.042 37.599 C 326.545 39.312,328.752 41.466,330.355 39.857 C 331.062 39.147,331.087 38.491,330.435 37.759 C 329.603 36.824,328.768 36.768,328.042 37.599 M39.951 41.621 C 40.776 42.161,41.014 42.967,40.733 44.267 C 40.596 44.899,40.408 45.863,40.316 46.408 C 39.396 51.850,36.198 52.172,35.261 46.916 C 35.131 46.183,34.906 45.136,34.762 44.590 C 34.180 42.385,34.595 41.562,36.417 41.311 C 37.604 41.148,39.479 41.312,39.951 41.621 M137.883 41.641 C 138.427 41.960,138.833 42.690,138.833 43.346 C 138.833 44.392,137.839 48.684,137.480 49.192 C 137.308 49.436,137.167 49.706,137.167 49.793 C 137.167 50.326,136.333 50.837,135.630 50.735 C 134.228 50.532,133.492 48.977,132.505 44.127 C 132.159 42.426,132.762 41.538,134.417 41.313 C 135.592 41.152,137.332 41.317,137.883 41.641 M223.041 47.070 C 221.838 47.478,221.922 46.670,221.870 58.338 C 221.818 70.188,221.815 70.155,223.010 70.394 C 223.583 70.508,224.333 70.376,224.333 70.161 C 224.333 70.085,224.465 69.893,224.625 69.732 C 224.899 69.459,225.252 50.622,225.026 48.333 C 224.944 47.506,223.837 46.801,223.041 47.070 M239.298 47.231 C 238.407 47.436,237.545 47.713,237.381 47.845 C 237.217 47.977,236.713 48.273,236.260 48.501 C 235.807 48.730,235.218 49.160,234.951 49.458 C 234.684 49.756,234.361 50.000,234.233 50.000 C 234.105 50.000,234.000 50.098,234.000 50.219 C 234.000 50.339,233.775 50.653,233.501 50.916 C 230.535 53.757,229.727 60.149,231.849 63.973 C 232.070 64.370,232.379 64.929,232.538 65.215 C 233.354 66.692,236.095 69.061,237.507 69.510 C 237.824 69.611,238.346 69.828,238.667 69.993 C 240.056 70.708,245.176 70.762,246.248 70.074 C 246.432 69.955,247.014 69.709,247.540 69.526 C 248.067 69.343,248.693 69.039,248.932 68.851 C 249.495 68.408,250.412 68.240,250.942 68.481 L 251.358 68.671 251.304 70.960 C 251.225 74.313,249.855 76.784,247.172 78.414 C 244.652 79.944,240.089 79.958,238.100 78.441 C 237.782 78.198,237.454 78.000,237.370 78.000 C 237.287 78.000,237.075 77.842,236.901 77.649 C 235.834 76.469,234.191 76.586,233.936 77.860 C 233.821 78.435,234.092 79.667,234.334 79.667 C 234.419 79.667,234.735 79.911,235.036 80.209 C 236.776 81.935,240.933 83.255,243.417 82.871 C 245.546 82.542,247.245 82.127,247.667 81.833 C 247.896 81.674,248.384 81.391,248.752 81.206 C 249.869 80.640,253.333 77.050,253.333 76.457 C 253.333 76.374,253.615 75.769,253.958 75.111 L 254.583 73.917 254.637 61.583 C 254.700 47.130,254.732 47.679,253.783 47.219 L 253.083 46.879 252.381 47.219 C 251.876 47.464,251.611 47.729,251.437 48.164 C 250.954 49.371,249.501 49.235,247.750 47.818 C 246.646 46.924,242.020 46.603,239.298 47.231 M337.583 47.065 C 336.605 47.427,336.510 47.545,336.487 48.421 C 336.464 49.275,336.560 49.534,337.643 51.542 C 338.561 53.243,341.166 58.361,343.813 63.667 C 345.117 66.279,346.257 68.529,346.347 68.667 C 346.436 68.804,346.639 69.129,346.796 69.387 C 347.333 70.268,347.417 70.331,348.183 70.435 C 349.107 70.560,349.678 70.110,350.314 68.755 C 350.528 68.300,350.799 67.850,350.916 67.755 C 351.034 67.661,351.222 67.283,351.334 66.917 C 351.446 66.550,351.743 65.912,351.994 65.500 C 352.245 65.087,352.551 64.487,352.674 64.167 C 352.797 63.846,353.033 63.358,353.198 63.083 C 353.362 62.808,353.581 62.396,353.683 62.167 C 353.886 61.711,356.274 56.788,356.552 56.250 C 360.281 49.055,360.577 48.228,359.710 47.423 C 358.534 46.333,357.514 47.093,355.919 50.250 C 355.317 51.442,354.756 52.529,354.672 52.667 C 354.589 52.804,354.327 53.329,354.091 53.833 C 353.855 54.337,353.555 54.938,353.425 55.167 C 353.294 55.396,353.046 55.883,352.873 56.250 C 352.700 56.617,352.444 57.142,352.304 57.417 C 352.163 57.692,351.888 58.235,351.691 58.625 C 351.494 59.015,351.190 59.615,351.016 59.958 C 350.841 60.302,350.327 61.333,349.873 62.250 C 348.673 64.672,347.877 64.591,346.576 61.917 C 346.264 61.275,345.907 60.563,345.783 60.333 C 345.504 59.818,345.423 59.659,342.056 53.000 C 340.550 50.021,339.227 47.554,339.117 47.518 C 339.007 47.482,338.729 47.324,338.500 47.166 C 338.158 46.931,337.993 46.913,337.583 47.065 M373.383 47.221 C 372.447 47.430,371.547 47.720,371.383 47.865 C 371.218 48.009,370.768 48.286,370.384 48.480 C 369.999 48.673,369.507 49.001,369.291 49.207 C 369.075 49.414,368.715 49.742,368.491 49.936 C 368.267 50.130,367.879 50.543,367.630 50.853 C 367.380 51.163,366.970 51.671,366.719 51.983 C 364.611 54.596,364.096 59.566,365.563 63.142 C 366.715 65.953,369.415 68.803,371.583 69.498 C 371.950 69.616,372.512 69.843,372.833 70.004 C 374.272 70.724,379.003 70.772,380.341 70.079 C 380.583 69.954,381.168 69.705,381.641 69.525 C 382.726 69.113,384.254 68.112,384.958 67.352 C 386.672 65.504,384.492 63.789,382.377 65.321 C 382.012 65.585,381.085 66.118,380.316 66.506 L 378.917 67.211 376.750 67.217 L 374.583 67.223 373.083 66.509 C 372.258 66.117,371.471 65.695,371.333 65.572 C 368.856 63.359,368.176 61.702,369.289 60.590 L 369.712 60.167 378.636 60.167 L 387.560 60.167 388.280 59.394 C 389.186 58.420,389.202 58.004,388.415 55.752 C 388.095 54.836,387.833 53.966,387.833 53.819 C 387.833 53.672,387.683 53.416,387.500 53.250 C 387.317 53.084,387.167 52.889,387.167 52.816 C 387.167 52.598,386.229 51.280,385.765 50.846 C 385.528 50.624,385.333 50.342,385.333 50.221 C 385.333 50.099,385.237 50.000,385.120 50.000 C 385.003 50.000,384.647 49.754,384.328 49.452 C 384.010 49.151,383.376 48.720,382.918 48.494 C 382.460 48.268,382.010 47.990,381.918 47.877 C 381.204 47.000,376.123 46.609,373.383 47.221 M328.219 47.375 C 327.521 48.146,327.500 48.475,327.500 58.717 L 327.500 68.551 327.916 69.431 C 328.515 70.697,329.881 70.925,330.333 69.835 C 330.444 69.565,330.640 69.258,330.768 69.152 C 331.076 68.896,331.116 49.227,330.809 48.317 C 330.400 47.100,328.946 46.571,328.219 47.375 M244.965 50.430 C 248.550 51.165,251.195 54.506,251.308 58.442 L 251.367 60.468 250.675 62.044 C 250.295 62.911,249.819 63.776,249.617 63.965 C 249.415 64.155,249.167 64.409,249.067 64.530 C 248.514 65.193,247.408 66.006,246.711 66.263 C 246.274 66.425,245.793 66.661,245.642 66.788 C 244.889 67.425,240.402 67.447,239.602 66.818 C 239.379 66.643,239.152 66.500,239.097 66.500 C 238.667 66.500,237.268 65.615,236.583 64.910 C 234.929 63.208,234.496 62.348,233.956 59.709 C 233.405 57.007,235.151 53.137,237.611 51.611 C 237.993 51.374,238.351 51.107,238.406 51.018 C 238.503 50.860,239.820 50.434,240.667 50.285 C 241.643 50.114,243.774 50.186,244.965 50.430 M379.193 50.475 C 381.805 51.100,384.621 53.706,384.692 55.563 C 384.748 57.054,385.155 56.979,376.760 57.014 L 369.438 57.045 369.050 56.564 C 367.819 55.035,371.030 51.114,374.000 50.520 C 374.504 50.419,375.067 50.307,375.250 50.271 C 376.119 50.100,378.041 50.199,379.193 50.475 M91.500 54.368 C 95.057 55.513,95.935 59.029,93.157 61.007 C 91.310 62.322,81.999 62.262,80.245 60.924 C 77.691 58.976,78.381 55.718,81.606 54.491 C 82.995 53.963,89.972 53.876,91.500 54.368 M73.899 79.158 C 73.302 79.300,72.568 79.803,72.426 80.167 C 72.372 80.304,72.214 80.604,72.074 80.833 C 71.466 81.830,72.238 83.632,73.788 84.833 C 75.335 86.031,76.269 86.662,76.912 86.943 C 77.276 87.102,77.905 87.408,78.308 87.623 C 78.931 87.954,80.644 88.499,83.167 89.170 C 84.346 89.484,89.894 89.369,90.958 89.009 C 91.485 88.830,92.404 88.562,93.000 88.412 C 94.857 87.947,99.333 85.526,99.333 84.987 C 99.333 84.903,99.438 84.833,99.566 84.833 C 99.932 84.833,101.289 83.194,101.404 82.610 C 102.077 79.220,99.220 77.965,96.225 80.336 C 95.505 80.906,94.729 81.453,94.500 81.551 C 94.271 81.650,93.933 81.857,93.750 82.013 C 93.567 82.168,92.929 82.464,92.333 82.670 C 91.737 82.876,90.912 83.203,90.500 83.396 C 89.371 83.927,84.129 83.927,83.000 83.396 C 82.587 83.203,81.765 82.874,81.171 82.666 C 80.578 82.458,79.903 82.160,79.671 82.003 C 79.440 81.846,78.950 81.521,78.583 81.280 C 78.217 81.040,77.492 80.509,76.974 80.100 C 76.455 79.692,75.743 79.278,75.391 79.180 C 74.680 78.982,74.636 78.982,73.899 79.158 M64.917 88.163 C 63.045 88.489,62.140 90.000,62.708 91.851 C 63.021 92.868,65.524 95.187,68.167 96.908 C 68.854 97.355,69.679 97.893,70.000 98.103 C 70.321 98.313,70.883 98.609,71.250 98.761 C 71.617 98.914,72.104 99.169,72.333 99.329 C 72.563 99.489,73.237 99.787,73.833 99.991 C 74.429 100.195,74.995 100.426,75.090 100.505 C 75.185 100.584,76.093 100.875,77.108 101.151 C 78.123 101.427,79.132 101.729,79.351 101.823 C 81.607 102.789,92.310 102.687,94.583 101.679 C 94.950 101.516,95.735 101.290,96.328 101.176 C 96.921 101.062,97.746 100.799,98.161 100.591 C 98.577 100.383,99.422 100.047,100.040 99.844 C 100.658 99.640,101.208 99.401,101.264 99.311 C 101.319 99.222,101.751 98.974,102.224 98.760 C 102.696 98.546,103.342 98.175,103.657 97.935 C 103.973 97.696,104.299 97.500,104.381 97.500 C 104.554 97.500,106.310 96.313,107.167 95.617 C 110.414 92.980,110.890 92.369,110.855 90.877 C 110.783 87.763,107.595 87.209,104.833 89.830 C 104.329 90.309,103.654 90.883,103.333 91.106 C 103.013 91.329,102.300 91.842,101.750 92.245 C 100.585 93.100,97.195 94.823,95.750 95.295 C 91.900 96.552,90.222 96.834,86.596 96.833 C 79.395 96.831,73.566 94.515,67.864 89.391 C 67.079 88.684,65.558 88.051,64.917 88.163 " stroke="none" fill="#259ad0" fill-rule="evenodd"></path></g></svg>
