<svg id="svg" xmlns="http://www.w3.org/2000/svg" xmlns:xlink="http://www.w3.org/1999/xlink" width="400" height="322.1238938053097" viewBox="0, 0, 400,322.1238938053097" version="1.1"><g id="svgg"><path id="path0" d="M27.398 20.183 L 26.108 21.348 26.108 52.190 L 26.108 83.032 27.200 84.091 C 28.711 85.555,30.826 85.634,32.242 84.278 L 33.199 83.360 33.199 73.254 C 33.199 62.188,33.477 59.680,35.043 56.586 C 40.341 46.124,54.534 45.437,61.097 55.326 C 63.276 58.609,63.497 60.156,63.497 72.148 C 63.497 82.601,63.507 82.755,64.222 83.814 C 65.470 85.660,68.343 85.708,69.826 83.907 L 70.574 82.998 70.483 71.072 C 70.410 61.494,70.294 58.797,69.893 57.373 C 68.246 51.520,64.214 46.624,58.422 43.443 C 51.879 39.850,40.544 40.824,35.294 45.430 C 33.170 47.294,33.199 47.461,33.199 33.206 L 33.199 21.018 32.060 20.017 C 30.452 18.606,29.090 18.654,27.398 20.183 M152.057 19.583 C 150.103 20.794,150.184 19.305,150.277 52.597 C 150.361 82.420,150.375 83.014,151.007 83.876 C 152.193 85.491,154.877 85.720,156.274 84.324 L 157.131 83.468 157.332 72.435 C 157.541 60.914,157.736 59.112,159.057 56.483 C 159.879 54.847,163.240 50.927,163.821 50.927 C 164.014 50.927,164.422 50.700,164.727 50.424 C 168.949 46.603,179.109 48.179,183.672 53.362 C 187.077 57.232,187.337 58.484,187.563 72.113 L 187.752 83.468 188.609 84.324 C 190.006 85.720,192.690 85.491,193.876 83.876 C 194.905 82.474,194.865 60.190,193.829 57.051 C 191.956 51.381,187.514 46.035,182.572 43.504 C 175.433 39.848,164.439 40.796,159.334 45.509 C 157.374 47.318,157.324 47.028,157.223 33.315 L 157.131 20.897 156.079 19.957 C 154.860 18.868,153.424 18.735,152.057 19.583 M244.244 19.672 C 240.119 21.347,237.245 24.366,235.834 28.505 C 234.936 31.142,235.018 82.219,235.923 83.703 C 237.216 85.823,240.586 85.697,241.885 83.481 C 242.523 82.393,242.552 81.758,242.707 65.431 L 242.869 48.509 249.854 48.348 C 256.633 48.192,256.863 48.165,257.644 47.430 C 259.446 45.736,259.439 43.331,257.629 41.907 C 256.861 41.303,256.332 41.257,250.142 41.257 C 242.002 41.257,242.707 41.806,242.708 35.471 C 242.709 26.827,246.481 23.750,252.391 27.572 C 255.409 29.523,257.538 29.245,258.662 26.754 C 260.789 22.037,250.665 17.064,244.244 19.672 M81.623 24.633 C 80.551 25.615,80.419 25.907,80.419 27.292 C 80.419 31.525,85.636 33.019,87.752 29.393 C 90.028 25.492,84.971 21.565,81.623 24.633 M270.501 24.255 C 268.229 25.831,268.365 29.276,270.757 30.787 C 273.003 32.204,275.442 31.376,276.398 28.870 C 277.822 25.143,273.780 21.979,270.501 24.255 M82.474 41.676 C 80.529 43.156,80.583 42.554,80.581 63.105 C 80.580 78.236,80.666 82.092,81.019 82.927 C 82.345 86.059,86.229 86.059,87.555 82.927 C 88.120 81.592,88.201 46.046,87.643 44.038 C 86.985 41.667,84.173 40.382,82.474 41.676 M113.940 41.457 C 94.207 46.467,89.831 70.566,106.582 81.973 C 113.638 86.778,125.893 86.222,131.732 80.831 C 133.236 79.442,133.534 80.151,133.355 84.694 C 133.047 92.547,129.737 97.248,122.834 99.638 C 119.615 100.753,113.021 100.073,111.175 98.437 C 110.895 98.189,110.519 97.985,110.339 97.985 C 110.159 97.985,109.735 97.673,109.397 97.292 C 106.725 94.275,103.608 94.183,102.106 97.078 C 101.288 98.654,101.606 99.702,103.464 101.561 C 110.469 108.566,122.691 109.428,131.023 103.505 C 133.548 101.710,135.287 99.942,136.765 97.667 C 140.586 91.787,140.326 93.965,140.450 66.781 L 140.556 43.473 139.448 42.365 C 137.286 40.203,133.449 41.583,133.436 44.529 C 133.428 46.249,132.987 46.698,132.088 45.901 C 128.149 42.413,118.999 40.172,113.940 41.457 M270.358 42.292 L 269.299 43.327 269.299 63.237 L 269.299 83.146 270.283 84.130 C 271.740 85.587,274.037 85.602,275.323 84.163 L 276.229 83.149 276.229 63.299 L 276.229 43.449 275.133 42.353 C 273.612 40.832,271.873 40.810,270.358 42.292 M286.494 41.660 C 285.684 42.319,284.609 44.052,284.609 44.698 C 284.609 45.330,302.829 81.907,304.049 83.726 C 305.228 85.482,307.760 85.790,309.328 84.368 C 309.928 83.823,313.067 77.715,327.201 49.585 C 329.493 45.023,329.609 43.968,327.994 42.353 C 326.597 40.956,324.805 40.835,323.372 42.041 C 322.492 42.781,307.816 71.483,307.816 72.463 C 307.816 72.673,307.635 72.842,307.413 72.840 C 306.508 72.828,306.470 72.768,303.124 66.076 C 302.282 64.392,301.481 62.796,301.343 62.530 C 301.206 62.264,300.405 60.669,299.564 58.985 C 293.068 45.981,291.286 42.616,290.561 41.982 C 289.621 41.162,287.329 40.980,286.494 41.660 M352.941 41.464 C 343.307 43.343,335.161 53.332,335.228 63.185 C 335.269 69.354,338.170 75.664,342.788 79.632 C 343.497 80.242,344.150 80.818,344.239 80.914 C 344.770 81.487,347.761 83.217,349.028 83.685 C 349.851 83.988,350.682 84.355,350.876 84.501 C 352.296 85.566,362.002 85.372,364.867 84.221 C 372.286 81.240,375.930 76.828,373.293 74.021 C 371.600 72.219,370.195 72.469,366.298 75.265 C 364.942 76.238,363.647 77.035,363.420 77.035 C 363.193 77.035,362.591 77.251,362.084 77.516 C 360.551 78.316,354.751 78.178,352.406 77.286 C 348.555 75.823,346.052 73.552,344.099 69.750 C 342.606 66.845,341.451 67.043,359.916 67.043 C 373.045 67.043,376.375 66.957,377.239 66.596 C 383.094 64.149,378.167 50.062,369.568 44.661 C 365.075 41.839,357.995 40.478,352.941 41.464 M122.504 48.862 C 132.018 51.653,136.170 62.092,131.308 70.998 C 130.541 72.403,127.166 75.571,125.640 76.317 C 122.419 77.892,121.956 78.002,118.513 78.002 C 101.493 78.002,97.597 54.986,113.618 49.086 C 116.002 48.209,119.938 48.109,122.504 48.862 M363.962 49.777 C 366.918 51.224,369.478 53.731,370.926 56.599 C 372.559 59.835,373.473 59.629,357.459 59.629 C 341.482 59.629,342.426 59.855,344.234 56.463 C 346.421 52.361,349.794 49.733,354.392 48.550 C 356.702 47.955,361.494 48.570,363.962 49.777 M87.278 147.650 C 85.910 147.794,84.128 148.138,83.318 148.413 C 82.509 148.687,81.653 148.912,81.416 148.912 C 77.373 148.912,71.262 155.479,70.234 160.929 C 66.917 178.505,93.242 185.401,113.288 172.208 C 115.501 170.752,116.140 170.839,119.114 173.001 C 121.826 174.973,126.873 177.117,132.957 178.882 C 133.810 179.130,136.211 179.211,140.048 179.121 C 147.309 178.952,148.883 178.615,153.671 176.198 C 162.235 171.876,164.096 159.754,157.201 153.205 C 155.748 151.825,154.637 151.115,151.330 149.451 C 144.905 146.220,130.253 147.632,122.160 152.264 C 121.362 152.721,120.492 153.196,120.226 153.320 C 119.960 153.445,118.988 154.027,118.065 154.614 C 116.146 155.836,115.357 155.929,114.151 155.075 C 112.376 153.819,108.258 151.510,106.302 150.674 C 105.185 150.197,103.981 149.674,103.626 149.511 C 99.801 147.756,93.284 147.014,87.278 147.650 M259.468 147.771 C 251.899 149.383,246.461 153.452,245.449 158.259 C 245.318 158.880,245.073 159.560,244.904 159.770 C 244.507 160.263,244.748 165.731,245.247 167.568 C 246.962 173.882,253.234 177.777,262.944 178.559 C 271.018 179.210,275.371 178.332,283.091 174.494 C 286.321 172.888,286.533 172.772,288.477 171.545 C 289.929 170.628,290.635 170.646,292.092 171.636 C 292.744 172.079,293.383 172.442,293.511 172.442 C 293.640 172.442,293.974 172.642,294.253 172.886 C 294.678 173.257,296.265 174.097,300.802 176.354 C 308.081 179.974,320.934 179.927,327.800 176.256 C 338.583 170.491,338.661 155.493,327.937 150.214 C 322.156 147.368,311.166 146.483,305.721 148.424 C 305.012 148.677,304.133 148.890,303.768 148.898 C 303.403 148.906,302.823 149.125,302.479 149.385 C 302.135 149.646,301.637 149.863,301.372 149.869 C 301.108 149.875,299.585 150.539,297.988 151.346 C 294.926 152.893,294.636 153.054,292.370 154.469 C 290.639 155.549,289.866 155.581,288.441 154.628 C 284.447 151.955,279.964 149.768,275.423 148.275 C 272.554 147.332,262.951 147.029,259.468 147.771 M98.952 160.269 C 105.229 162.710,105.864 163.331,103.285 164.512 C 102.277 164.973,101.384 165.351,101.299 165.351 C 101.214 165.351,100.688 165.563,100.129 165.823 C 94.730 168.333,84.173 167.565,82.173 164.516 C 80.902 162.579,83.007 160.168,86.543 159.512 C 89.515 158.961,96.718 159.400,98.952 160.269 M147.021 160.152 C 153.194 162.973,148.701 167.284,139.590 167.284 C 133.434 167.284,125.151 164.113,127.095 162.500 C 127.556 162.117,133.014 159.937,134.569 159.514 C 136.611 158.959,145.394 159.409,147.021 160.152 M273.650 160.192 C 276.393 161.221,279.534 162.857,279.695 163.341 C 279.873 163.875,276.343 165.455,271.693 166.921 C 268.316 167.987,259.795 167.043,257.890 165.393 C 252.889 161.062,265.170 157.009,273.650 160.192 M321.354 160.114 C 326.106 162.230,324.705 166.160,318.801 167.280 C 313.757 168.236,308.421 167.423,303.353 164.928 L 300.662 163.602 301.416 162.992 C 302.840 161.839,306.292 160.337,309.589 159.436 C 311.291 158.971,319.901 159.467,321.354 160.114 M192.425 173.762 C 183.127 174.130,175.451 175.703,169.863 178.385 C 164.386 181.014,159.790 185.486,157.379 190.531 C 156.069 193.272,156.950 193.097,144.446 193.097 C 132.618 193.097,133.132 193.188,133.123 191.097 C 133.114 188.856,131.396 186.101,129.352 185.051 C 128.868 184.802,124.756 184.690,116.148 184.690 C 102.178 184.690,101.882 184.730,100.081 186.878 L 99.114 188.031 99.175 194.821 C 99.243 202.203,100.346 209.111,102.112 213.215 C 106.476 223.353,114.040 227.243,121.837 223.356 C 125.652 221.455,130.206 214.365,131.044 209.025 C 131.156 208.316,131.488 207.228,131.783 206.608 L 132.319 205.479 143.435 205.479 L 154.552 205.479 154.780 207.575 C 155.788 216.840,157.498 222.217,161.116 227.497 C 163.144 230.456,163.215 230.664,162.550 231.673 C 162.229 232.159,161.795 232.847,161.585 233.200 C 161.276 233.720,158.257 238.483,155.681 242.512 C 154.577 244.238,152.833 247.428,152.643 248.069 C 152.182 249.616,154.073 253.989,155.202 253.989 C 155.422 253.989,155.783 254.206,156.003 254.472 C 156.625 255.221,159.773 255.111,161.114 254.294 C 162.625 253.372,163.403 252.372,167.481 246.111 C 169.451 243.087,171.437 240.212,171.895 239.724 L 172.728 238.835 174.277 239.745 C 187.835 247.705,212.138 248.629,229.009 241.826 C 230.604 241.182,232.345 240.393,232.877 240.071 C 234.740 238.945,235.119 239.177,237.480 242.886 C 245.498 255.483,245.008 254.956,248.704 254.956 L 251.334 254.956 252.618 253.672 C 255.635 250.655,255.298 248.829,250.298 241.096 C 249.782 240.298,249.200 239.355,249.005 239.001 C 248.809 238.646,247.675 236.878,246.484 235.072 C 243.939 231.211,243.991 231.524,245.550 229.398 C 246.227 228.475,246.881 227.502,247.004 227.236 C 247.127 226.970,247.511 226.317,247.858 225.786 C 250.176 222.232,252.160 215.560,252.555 209.992 C 252.898 205.159,251.631 205.641,264.013 205.641 C 275.626 205.641,275.721 205.655,276.051 207.485 C 278.656 221.934,289.260 229.342,298.678 223.294 C 303.093 220.458,306.564 213.442,307.810 204.835 C 309.611 192.392,309.437 190.135,306.430 186.998 C 304.135 184.604,304.480 184.651,289.994 184.757 C 274.437 184.870,274.075 184.991,273.455 190.271 C 273.095 193.334,273.986 193.124,261.563 193.083 C 249.182 193.043,250.112 193.248,248.637 190.233 C 245.284 183.381,237.637 177.665,229.551 175.968 C 228.786 175.808,228.014 175.586,227.836 175.476 C 225.499 174.032,207.548 173.163,192.425 173.762 M215.794 185.651 C 235.819 187.492,242.099 194.006,239.799 210.547 C 239.008 216.234,236.057 221.669,231.646 225.561 C 229.454 227.495,229.054 227.321,228.819 224.332 C 228.015 214.112,221.292 208.728,207.830 207.523 C 201.030 206.915,190.047 208.212,188.446 209.813 C 188.259 210.000,187.911 210.153,187.672 210.153 C 186.965 210.153,183.710 212.370,182.373 213.761 C 179.731 216.512,178.364 219.810,178.138 223.979 C 177.929 227.860,177.719 227.938,174.757 225.241 C 168.091 219.174,165.021 208.490,167.168 198.831 C 168.397 193.301,172.690 188.947,178.096 187.747 C 178.620 187.631,179.558 187.346,180.179 187.114 C 180.801 186.882,182.324 186.593,183.564 186.472 C 184.803 186.351,186.278 186.110,186.841 185.937 C 189.158 185.225,209.029 185.029,215.794 185.651 M120.579 197.019 C 120.651 198.681,120.467 200.453,120.004 202.579 C 119.733 203.820,119.382 205.478,119.223 206.264 C 118.245 211.099,115.619 213.740,114.153 211.362 C 112.543 208.751,110.356 199.418,110.805 197.072 L 110.953 196.293 115.751 196.293 C 120.501 196.293,120.548 196.300,120.579 197.019 M295.180 197.909 C 295.534 203.325,292.508 212.732,290.411 212.732 C 288.646 212.732,286.140 205.910,285.414 199.132 C 285.095 196.159,284.909 196.263,290.355 196.365 L 295.085 196.454 295.180 197.909 M210.033 219.504 C 214.807 220.278,216.922 222.282,216.922 226.032 C 216.922 230.602,213.272 231.930,201.450 231.662 C 190.902 231.422,188.153 229.521,189.662 223.510 C 190.539 220.014,200.774 218.001,210.033 219.504 M179.217 263.094 C 168.163 268.742,185.431 282.812,203.384 282.786 C 209.997 282.776,215.202 281.348,221.910 277.703 C 230.630 272.964,232.975 266.514,227.236 263.052 C 224.949 261.672,223.116 262.191,219.313 265.294 C 210.369 272.591,198.368 273.442,189.686 267.394 C 188.548 266.602,185.567 264.240,185.334 263.948 C 184.186 262.503,181.192 262.085,179.217 263.094 M162.418 279.449 C 157.939 281.816,157.809 285.862,162.077 290.082 C 184.289 312.043,222.588 311.678,245.060 289.291 C 248.399 285.964,247.809 281.561,243.746 279.488 C 241.104 278.141,238.833 278.914,234.811 282.531 C 232.986 284.172,230.146 286.354,229.009 286.989 C 228.477 287.287,227.607 287.813,227.075 288.160 C 225.756 289.020,220.248 291.700,219.799 291.700 C 219.600 291.700,218.980 291.908,218.421 292.162 C 215.291 293.585,203.865 295.336,201.223 294.797 C 200.728 294.697,198.853 294.469,197.057 294.293 C 187.708 293.373,177.251 288.588,170.335 282.065 C 167.050 278.966,164.762 278.210,162.418 279.449 " stroke="none" fill="#1b96ce" fill-rule="evenodd"></path></g></svg>
