<svg width="512" height="512" viewBox="0 0 512 512" fill="none" xmlns="http://www.w3.org/2000/svg">
<g id="drone (1) 1">
<g id="Rotors">
<path id="Rotor2" d="M113.639 423.397L108.795 408.645C108.38 407.374 107.671 406.219 106.726 405.274C105.781 404.329 104.626 403.62 103.355 403.205L88.6187 398.353L33.0546 332.565L44.5646 321.055L110.353 376.61L113.742 386.968C113.802 387.218 113.875 387.464 113.959 387.706C113.959 387.707 113.96 387.708 113.96 387.709L115.239 391.465L115.239 391.465C115.664 392.71 116.371 393.839 117.306 394.764C118.242 395.689 119.378 396.384 120.628 396.795L135.381 401.647L190.945 467.435L179.435 478.945L113.639 423.397Z" fill="black" stroke="black"/>
<path id="Rotor1" d="M332.568 32.352L320.352 44.568L376.352 110.776L391.2 115.72C392.378 116.114 393.448 116.776 394.326 117.655C395.203 118.534 395.864 119.605 396.256 120.784L401.208 135.632L467.416 191.632L479.648 179.432L423.648 113.224L408.808 108.28C407.63 107.886 406.56 107.224 405.682 106.345C404.805 105.466 404.144 104.395 403.752 103.216L398.8 88.368L332.568 32.352Z" fill="black"/>
<path id="Rotor0" d="M44.568 191.648L110.776 135.648L115.728 120.8C116.12 119.621 116.781 118.55 117.658 117.671C118.536 116.792 119.606 116.13 120.784 115.736L135.624 110.792L191.624 44.584L179.408 32.368L113.2 88.368L108.248 103.216C107.856 104.395 107.195 105.466 106.318 106.345C105.44 107.224 104.37 107.886 103.192 108.28L88.352 113.224L32.352 179.432L44.568 191.648Z" fill="black"/>
<path id="Rotor3" d="M467.432 320.352L401.224 376.352L396.272 391.2C395.88 392.379 395.219 393.45 394.342 394.329C393.464 395.208 392.394 395.87 391.216 396.264L376.376 401.208L320.376 467.416L332.568 479.648L398.776 423.648L403.728 408.8C404.12 407.621 404.781 406.55 405.658 405.671C406.536 404.792 407.606 404.13 408.784 403.736L423.624 398.792L479.624 332.584L467.432 320.352Z" fill="black"/>
</g>
<g id="Body">
<path id="Vector" d="M184 199V145.22L116.554 112C115.036 113.445 113.518 114.928 112 116.286L184 199Z" fill="black"/>
<path id="Vector_2" d="M113.988 395.772C115.667 397.145 117.081 398.591 118.568 400L184 367.847V306L112 394.302C112.663 394.808 113.311 395.242 113.988 395.772V395.772Z" fill="black"/>
<path id="Vector_3" d="M395.375 112L328 145.22V199L400 116.249C398.302 114.853 396.876 113.396 395.375 112Z" fill="black"/>
<path id="Vector_4" d="M393.432 400C394.904 398.59 396.377 397.156 397.997 395.782C398.645 395.252 399.337 394.818 400 394.312L328 306V367.871L393.432 400Z" fill="black"/>
<path id="Vector_5" d="M285.752 136H226.248L230.248 152H281.752L285.752 136Z" fill="black"/>
<path id="Vector_6" d="M224 384H288C294.365 384 300.47 381.471 304.971 376.971C309.471 372.47 312 366.365 312 360V168.984L305.752 144H302.24L295.76 169.944C295.327 171.674 294.328 173.21 292.922 174.307C291.516 175.404 289.783 176 288 176H224C222.217 176 220.484 175.404 219.078 174.307C217.672 173.21 216.673 171.674 216.24 169.944L209.76 144H206.248L200 168.984V360C200 366.365 202.529 372.47 207.029 376.971C211.53 381.471 217.635 384 224 384ZM280 224C280 221.878 280.844 219.844 282.344 218.344L290.344 210.344L301.656 221.656L296 227.312V340.688L301.656 346.344L290.344 357.656L282.344 349.656C280.844 348.156 280 346.122 280 344V224ZM210.344 221.656L221.656 210.344L229.656 218.344C231.156 219.844 232 221.878 232 224V344C232 346.122 231.156 348.156 229.656 349.656L221.656 357.656L210.344 346.344L216 340.688V227.312L210.344 221.656Z" fill="black"/>
</g>
</g>
</svg>
